<svg xmlns="http://www.w3.org/2000/svg" width="1240" height="645" viewBox="0 0 1240 645">
<rect width="100%" height="100%" fill="white"/>
<style>text{font-family:Arial,sans-serif;fill:#17212b;letter-spacing:0}.title{font-size:22px;font-weight:700}.label{font-size:12px}.small{font-size:10px}.axis{stroke:#4b5563;stroke-width:1}.grid{stroke:#e5e7eb;stroke-width:1}</style>
<text x="620" y="32" text-anchor="middle" class="title">Native-HLA calibration ranks</text>
<text x="80" y="67" class="label">Seed 104729: 17/26 primary pairs</text>
<line x1="210" y1="95.0" x2="239.0" y2="95.0" stroke="#cbd5e0"/>
<circle cx="239.0" cy="95.0" r="6" fill="#c53030"/>
<line x1="210" y1="104.4" x2="261.4" y2="104.4" stroke="#cbd5e0"/>
<circle cx="261.4" cy="104.4" r="3" fill="#4a5568"/>
<line x1="210" y1="113.8" x2="262.3" y2="113.8" stroke="#cbd5e0"/>
<circle cx="262.3" cy="113.8" r="3" fill="#4a5568"/>
<line x1="210" y1="123.1" x2="263.4" y2="123.1" stroke="#cbd5e0"/>
<circle cx="263.4" cy="123.1" r="3" fill="#4a5568"/>
<line x1="210" y1="132.5" x2="400.8" y2="132.5" stroke="#cbd5e0"/>
<circle cx="400.8" cy="132.5" r="3" fill="#4a5568"/>
<line x1="210" y1="141.9" x2="402.9" y2="141.9" stroke="#cbd5e0"/>
<circle cx="402.9" cy="141.9" r="3" fill="#4a5568"/>
<line x1="210" y1="151.2" x2="438.3" y2="151.2" stroke="#cbd5e0"/>
<circle cx="438.3" cy="151.2" r="3" fill="#4a5568"/>
<line x1="210" y1="160.6" x2="448.7" y2="160.6" stroke="#cbd5e0"/>
<circle cx="448.7" cy="160.6" r="3" fill="#4a5568"/>
<line x1="210" y1="170.0" x2="450.5" y2="170.0" stroke="#cbd5e0"/>
<circle cx="450.5" cy="170.0" r="3" fill="#4a5568"/>
<line x1="210" y1="179.4" x2="566.3" y2="179.4" stroke="#cbd5e0"/>
<circle cx="566.3" cy="179.4" r="3" fill="#4a5568"/>
<line x1="210" y1="188.8" x2="592.0" y2="188.8" stroke="#cbd5e0"/>
<circle cx="592.0" cy="188.8" r="3" fill="#4a5568"/>
<line x1="210" y1="198.1" x2="594.7" y2="198.1" stroke="#cbd5e0"/>
<circle cx="594.7" cy="198.1" r="3" fill="#4a5568"/>
<line x1="210" y1="207.5" x2="596.5" y2="207.5" stroke="#cbd5e0"/>
<circle cx="596.5" cy="207.5" r="3" fill="#4a5568"/>
<line x1="210" y1="216.9" x2="1132.8" y2="216.9" stroke="#cbd5e0"/>
<circle cx="1132.8" cy="216.9" r="3" fill="#4a5568"/>
<line x1="210" y1="226.2" x2="1135.4" y2="226.2" stroke="#cbd5e0"/>
<circle cx="1135.4" cy="226.2" r="3" fill="#4a5568"/>
<line x1="210" y1="235.6" x2="1137.3" y2="235.6" stroke="#cbd5e0"/>
<circle cx="1137.3" cy="235.6" r="3" fill="#4a5568"/>
<line x1="210" y1="245.0" x2="1140.0" y2="245.0" stroke="#cbd5e0"/>
<circle cx="1140.0" cy="245.0" r="3" fill="#4a5568"/>
<line x1="210" y1="255" x2="1140" y2="255" class="axis"/>
<text x="210" y="269" text-anchor="middle" class="small">0</text>
<text x="675" y="269" text-anchor="middle" class="small">7.9</text>
<text x="1140" y="269" text-anchor="middle" class="small">15.7</text>
<text x="675" y="283" text-anchor="middle" class="small">Median exposed-position RMSD (Å)</text>
<text x="80" y="297" class="small">Positive available rank: 1/17; formal status: not evaluable incomplete seed</text>
<text x="80" y="325" class="label">Seed 104759: 26/26 primary pairs</text>
<line x1="210" y1="353.0" x2="239.3" y2="353.0" stroke="#cbd5e0"/>
<circle cx="239.3" cy="353.0" r="6" fill="#c53030"/>
<line x1="210" y1="359.0" x2="327.6" y2="359.0" stroke="#cbd5e0"/>
<circle cx="327.6" cy="359.0" r="3" fill="#4a5568"/>
<line x1="210" y1="365.0" x2="342.6" y2="365.0" stroke="#cbd5e0"/>
<circle cx="342.6" cy="365.0" r="3" fill="#4a5568"/>
<line x1="210" y1="371.0" x2="347.8" y2="371.0" stroke="#cbd5e0"/>
<circle cx="347.8" cy="371.0" r="3" fill="#4a5568"/>
<line x1="210" y1="377.0" x2="401.1" y2="377.0" stroke="#cbd5e0"/>
<circle cx="401.1" cy="377.0" r="3" fill="#4a5568"/>
<line x1="210" y1="383.0" x2="416.5" y2="383.0" stroke="#cbd5e0"/>
<circle cx="416.5" cy="383.0" r="3" fill="#4a5568"/>
<line x1="210" y1="389.0" x2="419.8" y2="389.0" stroke="#cbd5e0"/>
<circle cx="419.8" cy="389.0" r="3" fill="#4a5568"/>
<line x1="210" y1="395.0" x2="422.8" y2="395.0" stroke="#cbd5e0"/>
<circle cx="422.8" cy="395.0" r="3" fill="#4a5568"/>
<line x1="210" y1="401.0" x2="441.9" y2="401.0" stroke="#cbd5e0"/>
<circle cx="441.9" cy="401.0" r="3" fill="#4a5568"/>
<line x1="210" y1="407.0" x2="447.6" y2="407.0" stroke="#cbd5e0"/>
<circle cx="447.6" cy="407.0" r="3" fill="#4a5568"/>
<line x1="210" y1="413.0" x2="514.4" y2="413.0" stroke="#cbd5e0"/>
<circle cx="514.4" cy="413.0" r="3" fill="#4a5568"/>
<line x1="210" y1="419.0" x2="583.0" y2="419.0" stroke="#cbd5e0"/>
<circle cx="583.0" cy="419.0" r="3" fill="#4a5568"/>
<line x1="210" y1="425.0" x2="586.8" y2="425.0" stroke="#cbd5e0"/>
<circle cx="586.8" cy="425.0" r="3" fill="#4a5568"/>
<line x1="210" y1="431.0" x2="599.5" y2="431.0" stroke="#cbd5e0"/>
<circle cx="599.5" cy="431.0" r="3" fill="#4a5568"/>
<line x1="210" y1="437.0" x2="601.6" y2="437.0" stroke="#cbd5e0"/>
<circle cx="601.6" cy="437.0" r="3" fill="#4a5568"/>
<line x1="210" y1="443.0" x2="605.7" y2="443.0" stroke="#cbd5e0"/>
<circle cx="605.7" cy="443.0" r="3" fill="#4a5568"/>
<line x1="210" y1="449.0" x2="666.4" y2="449.0" stroke="#cbd5e0"/>
<circle cx="666.4" cy="449.0" r="3" fill="#4a5568"/>
<line x1="210" y1="455.0" x2="721.2" y2="455.0" stroke="#cbd5e0"/>
<circle cx="721.2" cy="455.0" r="3" fill="#4a5568"/>
<line x1="210" y1="461.0" x2="733.1" y2="461.0" stroke="#cbd5e0"/>
<circle cx="733.1" cy="461.0" r="3" fill="#4a5568"/>
<line x1="210" y1="467.0" x2="736.8" y2="467.0" stroke="#cbd5e0"/>
<circle cx="736.8" cy="467.0" r="3" fill="#4a5568"/>
<line x1="210" y1="473.0" x2="815.4" y2="473.0" stroke="#cbd5e0"/>
<circle cx="815.4" cy="473.0" r="3" fill="#4a5568"/>
<line x1="210" y1="479.0" x2="887.1" y2="479.0" stroke="#cbd5e0"/>
<circle cx="887.1" cy="479.0" r="3" fill="#4a5568"/>
<line x1="210" y1="485.0" x2="888.6" y2="485.0" stroke="#cbd5e0"/>
<circle cx="888.6" cy="485.0" r="3" fill="#4a5568"/>
<line x1="210" y1="491.0" x2="958.4" y2="491.0" stroke="#cbd5e0"/>
<circle cx="958.4" cy="491.0" r="3" fill="#4a5568"/>
<line x1="210" y1="497.0" x2="985.7" y2="497.0" stroke="#cbd5e0"/>
<circle cx="985.7" cy="497.0" r="3" fill="#4a5568"/>
<line x1="210" y1="503.0" x2="1049.0" y2="503.0" stroke="#cbd5e0"/>
<circle cx="1049.0" cy="503.0" r="3" fill="#4a5568"/>
<line x1="210" y1="513" x2="1140" y2="513" class="axis"/>
<text x="210" y="527" text-anchor="middle" class="small">0</text>
<text x="675" y="527" text-anchor="middle" class="small">7.9</text>
<text x="1140" y="527" text-anchor="middle" class="small">15.7</text>
<text x="675" y="541" text-anchor="middle" class="small">Median exposed-position RMSD (Å)</text>
<text x="80" y="555" class="small">Positive available rank: 1/26; formal status: pass</text>
<text x="620" y="605" text-anchor="middle" class="small">Red = frozen BALF5–MBP positive. Missing controls are not imputed.</text>
<text x="620" y="621" text-anchor="middle" class="small">AlphaFold model samples are alternative technical predictions, not biological replicates.</text>
</svg>
